<svg xmlns="http://www.w3.org/2000/svg" width="1043" height="150" viewBox="0 0 1043 150">
  <g id="indicator" transform="translate(-748 -834)">
    <path id="Path_2997" data-name="Path 2997" d="M10,0H1033a10,10,0,0,1,10,10V140a10,10,0,0,1-10,10H10A10,10,0,0,1,0,140V10A10,10,0,0,1,10,0Z" transform="translate(748 834)" fill="#181818" opacity="0.69"/>
    <path id="ic_wifi_24px" d="M1,14.693l4.236,4.5a25.856,25.856,0,0,1,38.127,0l4.236-4.5A31.617,31.617,0,0,0,1,14.693Zm16.945,18L24.3,39.447,30.654,32.7A8.607,8.607,0,0,0,17.945,32.7Zm-8.473-9,4.236,4.5a14.368,14.368,0,0,1,21.182,0l4.236-4.5A20.13,20.13,0,0,0,9.473,23.694Z" transform="translate(827 887.553)" fill="#fff"/>
    <path id="ic_vibration_24px" d="M0,26.333H4.367V14.667H0Zm6.55,3.889h4.367V10.778H6.55ZM48.034,14.667V26.333H52.4V14.667Zm-6.55,15.556H45.85V10.778H41.484ZM36.025,3H16.375A3.107,3.107,0,0,0,13.1,5.917V35.083A3.107,3.107,0,0,0,16.375,38h19.65A3.107,3.107,0,0,0,39.3,35.083V5.917A3.107,3.107,0,0,0,36.025,3ZM34.934,34.111H17.467V6.889H34.934Z" transform="translate(1074 889)" fill="#fff"/>
    <path id="ic_battery_charging_full_24px" d="M24.34,5.5H21V2H13V5.5H9.66A2.522,2.522,0,0,0,7,7.827V34.655A2.523,2.523,0,0,0,9.66,37H24.32A2.528,2.528,0,0,0,27,34.673V7.827A2.522,2.522,0,0,0,24.34,5.5ZM15,33.5V23.875H11L19,10.75v9.625h4Z" transform="translate(1326 890)" fill="#fff"/>
    <path id="ic_video_library_24px" d="M5.5,9H2V33.5A3.51,3.51,0,0,0,5.5,37H30V33.5H5.5Zm28-7h-21A3.51,3.51,0,0,0,9,5.5v21A3.51,3.51,0,0,0,12.5,30h21A3.51,3.51,0,0,0,37,26.5V5.5A3.51,3.51,0,0,0,33.5,2Zm-14,21.875V8.125L30,16Z" transform="translate(1551 890)" fill="#fff"/>
    <text id="Connectivty" transform="translate(900 915)" fill="#fff" font-size="15" font-family="Montserrat-SemiBold, Montserrat" font-weight="600"><tspan x="0" y="0">Connectivty</tspan></text>
    <text id="Multi_Display" data-name="Multi Display" transform="translate(1152 915)" fill="#fff" font-size="15" font-family="Montserrat-SemiBold, Montserrat" font-weight="600"><tspan x="0" y="0">Multi Display</tspan></text>
    <text id="Long_lasting" data-name="Long lasting" transform="translate(1378 915)" fill="#fff" font-size="15" font-family="Montserrat-SemiBold, Montserrat" font-weight="600"><tspan x="0" y="0">Long lasting</tspan></text>
    <text id="Experience_" data-name="Experience+" transform="translate(1616 915)" fill="#fff" font-size="15" font-family="Montserrat-SemiBold, Montserrat" font-weight="600"><tspan x="0" y="0">Experience+</tspan></text>
  </g>
</svg>
