<svg xmlns="http://www.w3.org/2000/svg" width="136" height="33" viewBox="0 0 136 33">
  <g id="logo" transform="translate(-140 -51)">
    <path id="ic_fingerprint_24px" d="M27.087,6.075a.747.747,0,0,1-.374-.1A18.4,18.4,0,0,0,17.655,3.65,18.4,18.4,0,0,0,8.6,5.976a.821.821,0,0,1-1.106-.33.842.842,0,0,1,.325-1.122,20.431,20.431,0,0,1,19.646-.016A.814.814,0,0,1,27.8,5.613a.8.8,0,0,1-.716.462ZM3.815,14.738a.839.839,0,0,1-.472-.149.83.83,0,0,1-.2-1.155,16.89,16.89,0,0,1,6.1-5.4,18.532,18.532,0,0,1,16.767-.017,16.952,16.952,0,0,1,6.1,5.362.833.833,0,0,1-.2,1.155.8.8,0,0,1-1.138-.2,15.334,15.334,0,0,0-5.513-4.851,16.917,16.917,0,0,0-15.287.016,15.5,15.5,0,0,0-5.529,4.884.706.706,0,0,1-.634.347ZM13.979,34.654a.758.758,0,0,1-.569-.248,16.656,16.656,0,0,1-3.269-4.356,14.818,14.818,0,0,1-1.708-7.161A9.067,9.067,0,0,1,17.639,14a9.067,9.067,0,0,1,9.2,8.894.813.813,0,1,1-1.626,0,7.425,7.425,0,0,0-7.579-7.244,7.425,7.425,0,0,0-7.579,7.244,13.078,13.078,0,0,0,1.512,6.353,15.594,15.594,0,0,0,3.009,3.993.856.856,0,0,1,0,1.171.885.885,0,0,1-.6.248ZM25.64,31.6A8.667,8.667,0,0,1,20.6,30.133a8.819,8.819,0,0,1-3.871-7.243.813.813,0,1,1,1.626,0,7.054,7.054,0,0,0,7.286,7.045,10.6,10.6,0,0,0,1.691-.165.812.812,0,0,1,.943.676.821.821,0,0,1-.667.957A10.951,10.951,0,0,1,25.64,31.6ZM22.371,35a.939.939,0,0,1-.211-.033A12.644,12.644,0,0,1,16.11,31.5a12.128,12.128,0,0,1-3.529-8.613,5.012,5.012,0,0,1,10.018,0,3.388,3.388,0,0,0,6.765,0,11.545,11.545,0,0,0-11.791-11.27,11.855,11.855,0,0,0-10.75,6.65,10.746,10.746,0,0,0-.96,4.62,16.611,16.611,0,0,0,1.09,5.956.81.81,0,1,1-1.512.577,18.62,18.62,0,0,1-1.187-6.534A12.549,12.549,0,0,1,5.36,17.543a13.477,13.477,0,0,1,12.213-7.59,13.187,13.187,0,0,1,13.417,12.92,5.012,5.012,0,0,1-10.018,0,3.3,3.3,0,0,0-3.383-3.2,3.3,3.3,0,0,0-3.383,3.2,10.468,10.468,0,0,0,3.041,7.441,11.02,11.02,0,0,0,5.318,3.053.82.82,0,0,1,.569,1.007A.8.8,0,0,1,22.371,35Z" transform="translate(137.003 49)" fill="#fff"/>
    <text id="Signet_inc" data-name="Signet inc" transform="translate(184 77)" fill="#fff" font-size="21" font-family="SegoeUI, Segoe UI"><tspan x="0" y="0">Signet inc</tspan></text>
  </g>
</svg>
