<?xml version="1.0" standalone="no"?>
<!DOCTYPE svg PUBLIC "-//W3C//DTD SVG 20010904//EN"
 "http://www.w3.org/TR/2001/REC-SVG-20010904/DTD/svg10.dtd">
<svg version="1.0" xmlns="http://www.w3.org/2000/svg"
 width="1000.000000pt" height="1092.000000pt" viewBox="0 0 1000.000000 1092.000000"
 preserveAspectRatio="xMidYMid meet">
<metadata>
Created by potrace 1.16, written by Peter Selinger 2001-2019
</metadata>
<g transform="translate(0.000000,1092.000000) scale(0.100000,-0.100000)"
fill="#000000" stroke="none">
<path d="M0 5460 l0 -5460 5000 0 5000 0 0 5460 0 5460 -5000 0 -5000 0 0
-5460z m5080 3444 c30 -35 112 -54 252 -58 42 -1 83 -7 90 -13 15 -13 172 -15
203 -3 15 6 35 2 64 -11 36 -16 41 -22 36 -42 -5 -20 0 -26 37 -43 23 -10 46
-18 50 -16 12 3 10 -26 -2 -33 -5 -3 -10 -19 -10 -34 0 -24 -4 -27 -34 -28
-19 -1 -45 -9 -58 -18 -17 -13 -18 -16 -5 -11 11 3 31 9 45 12 26 5 26 5 7
-11 -11 -8 -38 -21 -60 -27 -22 -6 -50 -21 -63 -32 -20 -18 -34 -20 -105 -18
-45 2 -100 7 -122 11 -38 6 -32 9 140 66 177 58 235 85 186 85 -12 0 -31 -5
-41 -10 -16 -9 -18 -7 -15 11 2 12 11 32 19 44 l15 22 -71 -18 c-78 -21 -108
-41 -103 -68 3 -16 -2 -17 -47 -8 -34 7 -52 16 -55 27 -4 17 -8 16 -56 -2 -29
-11 -56 -19 -62 -19 -5 1 -27 4 -49 7 -27 5 -37 3 -32 -5 12 -19 -13 -12 -31
8 -16 19 -17 19 -35 -4 -10 -13 -18 -28 -18 -33 0 -7 -11 -7 -32 -1 -40 11
-38 11 -38 -1 0 -6 10 -15 23 -20 12 -5 16 -9 8 -9 -19 -1 -51 28 -51 46 0 28
-19 11 -32 -29 -13 -43 -13 -43 -57 -39 -33 2 -50 10 -64 27 -15 20 -22 22
-38 13 -12 -6 -18 -17 -15 -25 4 -10 2 -13 -7 -7 -14 9 -30 12 -75 17 l-33 3
22 -23 c22 -24 22 -24 2 -24 -29 0 -45 -23 -38 -57 6 -27 6 -27 -9 -9 -9 11
-16 23 -16 27 0 10 -51 6 -68 -5 -7 -4 -11 -14 -8 -22 8 -21 3 -18 -50 26 -52
43 -102 70 -128 70 -11 0 -16 -8 -15 -27 0 -16 -6 -60 -14 -100 -8 -40 -12
-75 -9 -78 13 -12 18 -3 14 25 -9 63 15 67 233 38 l89 -11 -61 -13 c-34 -7
-72 -18 -85 -25 -12 -7 -27 -12 -33 -10 -5 1 4 -12 22 -31 38 -39 48 -64 57
-140 5 -42 3 -64 -8 -86 -8 -16 -18 -60 -21 -98 -8 -86 -30 -204 -49 -266 -8
-27 -11 -48 -7 -48 16 0 126 41 135 50 15 15 36 12 36 -5 0 -8 -8 -15 -19 -15
-10 0 -24 -7 -31 -15 -7 -8 -16 -15 -20 -15 -4 0 -25 -18 -48 -40 -67 -63
-176 -88 -224 -50 l-26 20 -53 -30 c-62 -34 -85 -37 -111 -13 -14 13 -21 14
-30 5 -7 -7 -18 -12 -26 -12 -7 0 -30 -12 -50 -27 -20 -15 -38 -28 -40 -29 -3
-2 -9 -27 -11 -46 -1 -4 -15 -15 -31 -23 -18 -9 -28 -21 -24 -27 4 -6 3 -8 -3
-5 -5 4 -20 -3 -32 -14 -12 -12 -25 -18 -28 -15 -4 3 -14 -4 -22 -16 -12 -17
-27 -23 -56 -24 -58 -2 -85 -7 -85 -16 0 -4 -6 -5 -14 -2 -7 3 -16 -2 -19 -10
-5 -12 -17 -14 -54 -10 -26 3 -56 6 -65 7 -10 1 -18 6 -18 13 0 12 -51 12 -89
-1 -14 -4 -21 -3 -18 2 3 5 -15 10 -41 10 l-47 1 32 -13 c57 -24 64 -74 8 -55
-11 3 -41 6 -67 4 -38 -1 -51 3 -68 21 -12 13 -28 21 -36 18 -8 -3 -14 1 -14
11 0 13 -12 16 -60 16 -36 0 -60 4 -60 11 0 5 -8 9 -17 8 -24 -3 -52 10 -86
38 -16 13 -33 23 -38 23 -6 0 -20 11 -33 25 -13 14 -31 25 -40 25 -9 0 -16 5
-16 11 0 6 -9 8 -20 4 -14 -4 -18 -2 -15 7 3 8 -4 14 -20 14 -40 3 -65 31 -65
76 0 25 4 38 14 38 72 0 238 -65 325 -128 24 -17 66 -40 95 -50 89 -33 96 -35
96 -19 0 9 -6 17 -12 20 -7 2 7 3 32 0 204 -20 407 -6 482 33 17 9 27 11 24 5
-8 -13 54 -3 69 11 6 6 0 7 -17 3 -39 -10 -36 12 3 29 25 10 28 14 14 20 -9 3
-38 6 -63 6 -69 0 -176 44 -211 87 -16 19 -33 33 -38 30 -13 -8 -34 7 -37 28
-2 13 -13 18 -43 19 -72 4 -149 72 -183 161 -12 32 -21 31 -49 -1 -12 -14 -29
-23 -37 -20 -8 3 -14 1 -14 -5 0 -6 -4 -8 -9 -5 -5 3 -11 -4 -14 -15 -6 -21
-6 -21 -37 -2 -29 16 -33 17 -43 2 -10 -13 -12 -6 -13 36 l-1 52 73 12 c54 9
74 16 74 27 0 11 -6 13 -21 9 -18 -6 -19 -5 -10 14 6 11 10 33 10 48 -4 70 -5
70 69 75 62 5 130 28 174 60 14 10 21 9 40 -9 13 -11 34 -26 47 -33 23 -12 27
-10 60 29 20 23 42 41 49 41 7 0 54 31 105 68 117 87 102 79 189 97 60 12 94
13 168 6 51 -6 113 -8 136 -4 35 5 43 10 47 32 3 14 1 33 -4 43 -5 9 -12 34
-15 55 -3 21 -11 46 -16 57 -16 29 8 38 88 31 47 -4 74 -3 79 4 3 6 37 11 74
11 50 0 72 4 82 16 20 24 69 46 91 40 23 -5 177 30 196 46 6 6 12 18 12 27 0
9 27 39 60 66 33 28 65 62 71 78 13 31 21 33 39 11z m1033 -125 c55 5 96 2
128 -11 24 -8 28 -18 38 -83 12 -74 12 -74 77 -129 l64 -54 -30 -14 c-17 -7
-33 -21 -36 -30 -3 -10 -11 -18 -17 -18 -7 0 -6 -4 3 -10 12 -8 12 -10 -3 -16
-14 -5 -15 -9 -6 -20 9 -11 8 -14 -5 -14 -9 0 -15 -3 -14 -7 3 -17 -15 -43
-25 -36 -6 4 -8 0 -4 -9 4 -11 -2 -18 -19 -22 -13 -4 -24 -11 -24 -16 0 -6 -9
-6 -24 0 -13 5 -26 6 -29 4 -3 -3 -8 -1 -12 5 -3 6 -1 12 4 12 6 1 16 3 21 4
6 1 13 3 17 4 4 0 -1 7 -11 14 -16 12 -23 9 -56 -24 -34 -33 -42 -37 -76 -33
-22 3 -53 6 -70 8 -17 2 -35 6 -41 9 -5 3 -36 9 -68 12 -33 4 -64 8 -70 9 -18
2 -35 24 -35 44 0 11 -7 25 -15 32 -13 11 -15 8 -15 -17 0 -33 -25 -61 -78
-88 -30 -14 -36 -15 -50 -2 -10 8 -35 20 -57 27 -55 17 -145 62 -145 71 0 5
11 4 24 -2 21 -10 35 -6 92 20 60 28 77 32 146 30 76 -2 79 -1 122 35 24 20
59 55 77 78 18 24 48 59 66 79 l34 36 -25 38 c-29 42 -26 55 12 55 15 0 41 9
57 20 17 11 37 17 45 14 8 -4 23 -6 33 -5z m-1053 -360 c-11 -7 8 -9 68 -6 45
2 79 1 75 -3 -31 -28 -99 -70 -113 -70 -10 0 -34 -15 -54 -34 -72 -65 -167
-53 -174 22 -4 35 -9 38 -37 19 -35 -23 -77 -39 -69 -26 5 8 3 9 -7 3 -17 -11
-89 -15 -89 -6 0 14 70 52 114 63 25 6 46 14 46 18 0 4 17 5 38 3 20 -1 71 4
112 11 101 19 109 20 90 6z m246 -198 c-10 -11 -15 -25 -10 -32 4 -7 3 -10 -3
-6 -17 11 -35 -20 -28 -45 7 -23 7 -23 -9 -3 -17 20 -17 19 -10 -5 4 -14 12
-28 18 -33 7 -4 3 -9 -12 -13 -19 -5 -20 -9 -10 -22 11 -13 11 -14 -1 -8 -10
7 -12 3 -6 -13 6 -20 5 -21 -13 -10 -12 7 -18 20 -15 33 3 20 3 20 -6 1 -6
-14 -4 -25 7 -37 17 -20 3 -24 -18 -5 -8 6 -6 2 3 -10 12 -14 15 -23 8 -28 -6
-3 -14 1 -17 9 -3 9 -10 16 -15 16 -5 0 0 -16 11 -35 24 -42 18 -45 -17 -7
-20 20 -23 22 -15 6 6 -12 8 -24 5 -28 -3 -3 -1 -6 5 -6 7 0 12 -5 12 -11 0
-5 -5 -7 -12 -3 -8 5 -9 2 -4 -12 4 -10 4 -15 0 -11 -4 4 -14 1 -23 -6 -14
-11 -15 -10 -1 8 8 11 10 16 5 12 -5 -4 -15 3 -23 15 -10 18 -12 19 -6 3 3
-11 6 -27 7 -35 0 -8 4 -21 10 -27 14 -19 -3 -16 -25 4 -18 16 -19 16 -8 -12
l10 -30 -19 22 c-10 12 -21 20 -24 17 -3 -3 -1 12 4 33 5 21 9 41 9 45 0 4 6
13 13 20 7 7 33 38 58 69 57 71 172 199 178 199 2 0 -4 -9 -13 -19z m-490 -30
c-3 -4 4 -7 14 -7 11 1 20 -3 20 -9 3 -17 22 -35 31 -29 5 3 9 -2 9 -10 0 -9
4 -16 8 -16 14 0 32 -48 32 -85 0 -19 -4 -35 -10 -35 -17 0 -11 -39 10 -60 27
-27 29 -94 3 -86 -10 3 -23 2 -29 -2 -15 -10 -37 -53 -30 -59 3 -4 -3 -13 -15
-21 -15 -10 -19 -21 -15 -38 5 -20 3 -24 -16 -25 -22 0 -22 -1 -3 -9 17 -7 17
-9 3 -9 -11 -1 -15 -6 -12 -16 4 -10 0 -15 -12 -15 -14 0 -16 -2 -6 -9 11 -6
9 -9 -7 -14 -22 -6 -35 15 -26 44 4 12 1 19 -6 19 -7 0 -9 3 -6 6 3 4 2 15 -4
25 -7 13 -4 40 8 91 13 54 14 73 5 76 -7 2 -10 8 -7 13 6 9 -11 80 -27 116 -6
12 -8 33 -6 47 3 14 1 23 -3 20 -5 -3 -9 3 -9 12 0 21 87 107 101 99 5 -4 7
-10 5 -14z m1229 -461 c-3 -6 1 -7 9 -4 9 3 21 -4 30 -19 14 -21 24 -24 71
-24 37 0 61 -6 73 -16 10 -9 43 -28 75 -42 31 -13 74 -36 96 -50 21 -14 45
-23 53 -20 11 4 17 -2 21 -23 6 -30 -7 -149 -17 -160 -4 -3 0 -12 7 -21 7 -9
24 -40 37 -69 20 -44 22 -56 12 -70 -7 -9 -15 -25 -18 -34 -8 -23 -10 -23 -40
7 -14 14 -22 25 -17 25 4 0 2 5 -4 11 -6 6 -9 19 -7 28 2 9 -10 -12 -27 -47
-19 -39 -40 -67 -54 -72 -13 -5 -26 -19 -30 -32 -4 -13 -37 -52 -74 -87 l-66
-63 73 6 c39 4 72 5 72 2 0 -9 -52 -33 -131 -61 -62 -22 -91 -26 -181 -26 -67
1 -123 6 -149 15 -24 8 -48 11 -54 7 -24 -19 -70 -19 -108 1 -37 19 -95 20
-158 2 -8 -2 -24 4 -35 14 -11 11 -36 19 -59 20 -33 1 -46 8 -75 41 -30 34
-39 39 -66 34 -24 -4 -37 1 -59 21 -32 30 -23 32 55 11 30 -8 68 -15 83 -15
24 0 26 3 18 18 -19 36 -51 186 -51 241 0 105 78 281 129 293 24 5 50 31 44
42 -4 6 0 5 9 -1 8 -7 17 -10 20 -7 3 3 9 1 12 -4 8 -13 -25 -41 -52 -45 -13
-2 -35 -21 -49 -43 -26 -37 -27 -44 -27 -174 0 -74 3 -153 7 -175 21 -114 33
-148 52 -156 18 -7 119 -19 425 -50 155 -15 168 -13 201 36 76 114 158 272
161 310 1 14 6 25 10 25 4 0 8 11 8 25 0 14 -6 25 -12 25 -10 0 -9 3 1 9 7 5
11 13 7 19 -3 5 -8 34 -12 63 -3 30 -13 62 -22 71 -21 25 -84 41 -94 25 -6 -8
-10 -5 -14 11 -7 23 -26 31 -23 10 1 -7 1 -22 0 -33 -2 -18 -4 -17 -13 5 -10
24 -10 24 -18 5 -6 -13 -9 -15 -10 -5 0 10 -4 8 -13 -6 -11 -20 -13 -21 -27
-6 -14 15 -15 15 -18 -5 -3 -19 -7 -20 -33 -13 -17 5 -29 5 -29 -1 0 -5 -7 -9
-16 -9 -8 0 -13 4 -9 9 13 23 -41 -1 -61 -26 l-23 -28 15 44 c29 84 43 98 61
59 8 -18 9 -15 9 20 -1 22 -4 44 -8 48 -5 4 -8 14 -8 23 1 13 4 12 17 -4 13
-16 15 -17 10 -2 -9 24 2 46 29 60 29 15 67 19 59 7z m-412 -120 c23 -11 51
-33 62 -50 11 -16 34 -37 52 -45 39 -19 42 -23 34 -55 -7 -24 -7 -24 -20 8 -7
18 -20 32 -29 32 -12 0 -14 -10 -9 -52 4 -36 3 -48 -3 -38 -5 8 -10 22 -10 31
0 12 -7 15 -26 11 -21 -4 -25 -2 -19 9 7 11 6 12 -6 3 -23 -19 -89 -23 -89 -6
0 12 -3 12 -17 1 -9 -8 -14 -9 -11 -4 4 6 -2 12 -13 12 -18 2 -20 -3 -15 -49
7 -61 -3 -58 -15 4 -12 65 19 142 37 93 4 -8 10 -12 15 -9 5 3 9 -3 9 -13 0
-11 3 -14 8 -7 7 10 21 11 67 1 11 -2 25 2 33 9 7 7 19 11 27 8 32 -13 13 26
-21 42 -19 9 -47 29 -62 43 -15 15 -37 26 -49 25 -12 -1 -21 2 -18 5 8 13 46
9 88 -9z m1191 -326 c30 -12 38 -41 20 -75 -17 -34 -58 -79 -71 -79 -12 0 -63
-49 -63 -61 0 -6 5 -19 10 -30 8 -14 7 -19 -3 -19 -8 0 -22 -11 -33 -24 -10
-14 -22 -22 -27 -19 -5 3 -6 -3 -3 -15 7 -22 -18 -34 -60 -26 -14 3 -23 1 -20
-5 5 -8 -29 -25 -46 -22 -4 0 -5 -5 -2 -12 3 -10 -5 -13 -31 -11 -20 2 -33 -1
-30 -6 3 -5 -7 -7 -22 -4 -15 3 -24 2 -21 -2 12 -12 -21 -35 -52 -36 -16 -1
-27 -5 -24 -10 3 -5 12 -7 20 -4 8 3 11 0 7 -10 -3 -7 -14 -14 -25 -14 -10 0
-16 -4 -13 -10 3 -5 2 -10 -4 -10 -5 0 -23 -12 -39 -27 -49 -46 -59 -52 -91
-58 -17 -3 -45 -7 -63 -11 -51 -8 -46 -14 13 -14 52 1 79 6 239 50 82 23 222
37 263 26 76 -19 -69 -95 -190 -100 -17 0 -29 -5 -25 -10 3 -5 -2 -7 -11 -3
-9 3 -18 -1 -22 -11 -5 -13 -8 -14 -14 -3 -6 9 -11 10 -15 2 -4 -6 -13 -8 -19
-4 -18 11 -47 11 -47 0 0 -6 -3 -8 -6 -4 -3 3 -17 2 -31 -4 -13 -5 -22 -6 -20
-1 9 13 -56 5 -67 -9 -6 -8 -22 -13 -35 -11 -13 2 -28 -2 -32 -10 -6 -9 -9
-10 -9 -1 0 9 -7 10 -26 2 -15 -5 -29 -7 -32 -5 -2 3 -19 -1 -37 -8 -43 -18
-185 -18 -178 -1 2 7 0 16 -6 20 -6 3 -14 -1 -17 -9 -7 -18 -34 -22 -34 -5 0
5 -5 7 -10 4 -20 -12 -51 6 -48 28 2 17 16 25 68 39 36 10 81 21 100 24 19 4
40 12 45 19 12 14 115 68 115 60 0 -6 13 4 45 33 8 7 15 11 15 7 0 -3 27 12
59 35 33 22 62 40 64 40 3 0 22 16 43 36 22 20 81 63 132 96 101 66 176 141
169 170 -4 13 10 27 52 53 108 65 159 83 195 69z"/>
<path d="M4113 8258 c-13 -6 -23 -17 -23 -25 0 -8 -8 -13 -17 -12 -10 1 -26
-1 -36 -6 -17 -7 -17 -8 0 -21 15 -12 15 -13 2 -8 -10 3 -20 1 -24 -5 -3 -6
-11 -11 -16 -11 -6 0 -7 4 -4 10 5 8 -53 -12 -77 -27 -5 -2 -1 -17 7 -34 15
-28 15 -29 -7 -29 l-23 -1 23 -19 c25 -21 25 -20 -48 -36 -33 -7 -34 -8 -10
-14 14 -4 31 -2 38 3 10 8 12 6 10 -4 -4 -18 -38 -38 -55 -32 -8 3 -23 -3 -34
-13 -20 -18 -21 -18 -40 5 -14 17 -16 26 -9 31 7 4 10 20 9 36 -3 20 0 28 9
26 10 -2 10 2 1 20 -11 20 -13 20 -24 5 -6 -9 -15 -14 -18 -10 -4 3 -7 0 -7
-8 0 -8 -9 -27 -21 -44 l-20 -30 5 45 6 45 -15 -50 c-12 -43 -12 -52 0 -66 8
-8 12 -19 8 -23 -4 -4 0 -4 8 -1 9 3 21 -1 28 -9 10 -12 5 -15 -30 -21 -26 -4
-45 -3 -52 4 -6 6 -18 11 -26 11 -8 0 -23 7 -33 17 -17 15 -18 15 -19 0 -2
-21 -3 -26 -16 -57 -5 -14 -13 -40 -16 -57 -6 -31 -3 -35 53 -73 82 -55 240
-124 254 -110 7 7 7 15 -2 28 -7 9 -15 25 -18 35 -4 9 -13 17 -21 17 -13 0
-13 2 -2 17 8 9 9 14 3 10 -7 -4 -17 0 -24 8 -7 8 -9 15 -4 15 4 0 3 5 -4 12
-16 16 -15 28 3 28 8 0 15 6 15 14 0 7 10 16 22 19 19 5 20 8 7 23 -13 16 -12
16 18 1 29 -15 33 -15 47 -1 9 8 16 12 16 7 0 -4 4 -3 8 3 11 17 65 42 80 37
14 -5 16 -39 2 -48 -5 -3 -7 -12 -4 -20 9 -22 38 10 30 33 -4 9 5 2 20 -16
l26 -32 17 21 c17 21 17 21 17 1 0 -11 -5 -20 -11 -19 -5 1 -9 -4 -7 -10 3
-16 -15 -17 -20 -1 -2 6 -12 12 -22 14 -14 2 -15 0 -5 -12 9 -12 9 -13 -3 -9
-11 5 -15 -2 -16 -25 -1 -26 2 -29 14 -19 12 10 13 9 8 -5 -3 -9 -11 -16 -18
-16 -16 0 -44 -73 -36 -95 9 -24 -9 -67 -23 -58 -6 3 -7 1 -3 -5 9 -16 58 7
52 24 -3 9 1 11 11 7 12 -5 14 -3 8 8 -7 11 -6 12 6 2 12 -9 23 -6 59 17 148
96 300 232 300 269 0 25 -83 169 -123 213 l-42 47 -2 -42 c-2 -23 -11 -66 -20
-97 -10 -30 -17 -61 -16 -69 1 -9 -2 -10 -10 -2 -7 7 -6 22 6 51 8 22 12 40 7
40 -5 0 -11 8 -13 18 -4 15 -11 -29 -8 -50 0 -4 -5 -5 -12 -2 -7 2 -21 -3 -32
-12 -11 -8 -14 -13 -7 -9 6 3 12 1 12 -4 0 -13 -33 -15 -44 -3 -8 7 -13 8 -41
11 -25 2 -17 15 20 32 19 9 32 13 30 8 -3 -4 -1 -10 5 -14 5 -3 10 1 10 10 0
9 4 14 9 11 5 -4 8 2 7 11 -2 10 3 28 11 40 11 16 12 27 4 42 -6 11 -8 27 -4
37 4 11 3 15 -4 11 -6 -4 -13 -1 -16 7 -3 8 1 17 9 20 14 6 20 27 7 25 -5 0
-18 -5 -30 -11z"/>
<path d="M4532 7988 c-7 -7 -30 -17 -50 -23 -27 -8 -38 -17 -40 -34 -3 -16 0
-21 9 -16 9 6 10 2 5 -16 -4 -13 -8 -32 -7 -42 0 -9 -4 -15 -10 -12 -5 4 -9
-1 -9 -10 0 -9 5 -13 10 -10 15 9 12 -2 -6 -19 -9 -9 -11 -16 -4 -16 6 0 8 -5
5 -10 -4 -6 -10 -8 -15 -5 -4 3 -7 -1 -6 -8 0 -6 -2 -13 -6 -14 -23 -8 -37 0
-46 25 -9 24 -11 24 -11 5 -1 -12 -17 -38 -36 -58 -31 -33 -38 -37 -69 -31
-32 6 -37 4 -51 -23 l-15 -31 27 11 c16 6 59 15 98 19 38 5 71 12 72 17 2 5
17 8 33 5 41 -6 75 4 104 31 17 16 22 27 16 37 -6 9 -3 19 8 28 9 7 11 11 5 7
-16 -8 -17 11 -2 21 6 3 9 15 6 25 -3 11 -1 17 3 14 5 -3 8 22 7 55 -2 33 0
60 4 60 3 0 6 7 6 15 0 18 -18 20 -35 3z"/>
<path d="M6178 8619 c-10 -17 -18 -35 -18 -41 0 -16 -48 -69 -98 -107 -63 -47
-87 -70 -81 -76 3 -2 49 -2 102 2 70 4 97 10 97 19 0 8 7 11 18 8 10 -4 13 -3
6 3 -12 9 -13 52 -1 71 5 7 4 12 -3 12 -10 0 -9 24 5 113 6 36 -6 34 -27 -4z"/>
<path d="M6124 8615 c-4 -8 -17 -15 -29 -15 -44 0 -74 -19 -100 -64 -27 -45
-98 -99 -150 -112 -52 -13 -34 -24 41 -24 l77 0 64 63 c35 34 71 76 79 92 22
43 34 75 28 75 -2 0 -7 -7 -10 -15z"/>
</g>
</svg>
