<svg xmlns="http://www.w3.org/2000/svg" width="50" height="50" viewBox="0 0 120 120">
  <g id="Group_3" data-name="Group 3" transform="matrix(0.602, -0.799, 0.799, 0.602, -188.039, 184.837)">
    <g id="Ellipse_7" data-name="Ellipse 7" transform="translate(197 87)" fill="rgba(255,255,255,0.04)" stroke="#fefefe" stroke-width="3">
      <circle cx="50" cy="50" r="50" stroke="none"/>
      <circle cx="50" cy="50" r="48.5" fill="none"/>
    </g>
    <line id="Line_3" data-name="Line 3" x1="45" y2="62" transform="translate(202.5 87.5)" fill="none" stroke="#faf7f7" stroke-width="2"/>
    <line id="Line_4" data-name="Line 4" x1="53" y2="75" transform="translate(210.5 93.5)" fill="none" stroke="#faf7f7" stroke-width="2"/>
    <line id="Line_5" data-name="Line 5" x1="55" y2="79" transform="translate(221.5 101.5)" fill="none" stroke="#faf7f7" stroke-width="2"/>
    <line id="Line_6" data-name="Line 6" x2="29" y2="36" transform="translate(265.5 115.5)" fill="none" stroke="#faf7f7" stroke-width="2"/>
    <line id="Line_7" data-name="Line 7" x2="20" y2="28" transform="translate(274.5 103.5)" fill="none" stroke="#faf7f7" stroke-width="2"/>
    <line id="Line_8" data-name="Line 8" x2="29" y2="36" transform="translate(258.5 127.5)" fill="none" stroke="#faf7f7" stroke-width="2"/>
    <line id="Line_9" data-name="Line 9" x2="25" y2="30" transform="translate(244.5 149.5)" fill="none" stroke="#faf7f7" stroke-width="2"/>
    <line id="Line_10" data-name="Line 10" x2="29" y2="36" transform="translate(251.5 138.5)" fill="none" stroke="#faf7f7" stroke-width="2"/>
    <line id="Line_11" data-name="Line 11" x2="21" y2="24" transform="translate(236.5 159.5)" fill="none" stroke="#faf7f7" stroke-width="2"/>
    <line id="Line_12" data-name="Line 12" x2="13" y2="15" transform="translate(228.5 168.5)" fill="none" stroke="#faf7f7" stroke-width="2"/>
    <line id="Line_13" data-name="Line 13" x2="12" y2="14" transform="translate(237.5 101.5)" fill="none" stroke="#f9f3f3" stroke-width="2"/>
    <line id="Line_14" data-name="Line 14" x2="12" y2="14" transform="translate(216.5 127.5)" fill="none" stroke="#f9f3f3" stroke-width="2"/>
    <line id="Line_15" data-name="Line 15" x2="12" y2="12.5" transform="translate(243.5 120.5)" fill="none" stroke="#f9f3f3" stroke-width="2"/>
    <line id="Line_16" data-name="Line 16" x2="12" y2="12.5" transform="translate(217.5 157.5)" fill="none" stroke="#f9f3f3" stroke-width="2"/>
  </g>
</svg>
