<svg xmlns="http://www.w3.org/2000/svg" xmlns:xlink="http://www.w3.org/1999/xlink" width="375" height="812" viewBox="0 0 375 812">
  <defs>
    <linearGradient id="linear-gradient" y1="1" x2="1" gradientUnits="objectBoundingBox">
      <stop offset="0" stop-color="#16162a"/>
      <stop offset="1" stop-color="#28283e"/>
    </linearGradient>
    <linearGradient id="linear-gradient-2" x1="1.356" y1="-0.588" x2="0.186" y2="1.498" gradientUnits="objectBoundingBox">
      <stop offset="0" stop-color="#a148a3"/>
      <stop offset="1" stop-color="#f24285"/>
    </linearGradient>
    <linearGradient id="linear-gradient-7" x1="5.084" y1="0.316" x2="-3.29" y2="1.255" xlink:href="#linear-gradient-2"/>
    <filter id="PATH_1" x="62.755" y="349.03" width="292.226" height="134.418" filterUnits="userSpaceOnUse">
      <feOffset dy="3" input="SourceAlpha"/>
      <feGaussianBlur stdDeviation="3" result="blur"/>
      <feFlood flood-opacity="0.161"/>
      <feComposite operator="in" in2="blur"/>
      <feComposite in="SourceGraphic"/>
    </filter>
    <linearGradient id="linear-gradient-9" x1="0.5" y1="-0.018" x2="0.5" y2="1" gradientUnits="objectBoundingBox">
      <stop offset="0" stop-color="#ff4991" stop-opacity="0.102"/>
      <stop offset="1" stop-color="#ff4991" stop-opacity="0"/>
    </linearGradient>
    <filter id="Path_285" x="63.5" y="350.851" width="291.094" height="189.321" filterUnits="userSpaceOnUse">
      <feOffset dy="3" input="SourceAlpha"/>
      <feGaussianBlur stdDeviation="3" result="blur-2"/>
      <feFlood flood-opacity="0.161"/>
      <feComposite operator="in" in2="blur-2"/>
      <feComposite in="SourceGraphic"/>
    </filter>
    <clipPath id="clip-path">
      <rect id="Rectangle_1488" data-name="Rectangle 1488" width="74" height="15" transform="translate(5733 306)" fill="#fff" opacity="0.173"/>
    </clipPath>
    <clipPath id="clip-Bitcoin">
      <rect width="375" height="812"/>
    </clipPath>
  </defs>
  <g id="Bitcoin" clip-path="url(#clip-Bitcoin)">
    <rect width="375" height="812" fill="#1d282e"/>
    <g id="app-view">
      <rect id="BG" width="375" height="812" fill="url(#linear-gradient)"/>
      <g id="Month" transform="translate(35.313 229)">
        <g id="day">
          <rect id="day-2" data-name="day" width="52" height="19" rx="9.5" transform="translate(-12.313 -1)" fill="url(#linear-gradient-2)"/>
          <text id="Day-3" data-name="Day" transform="translate(-0.313)" fill="#dfdbf8" font-size="12" font-family="Poppins-SemiBold, Poppins" font-weight="600"><tspan x="0" y="13">DAY</tspan></text>
        </g>
        <g id="week">
          <rect id="week-2" data-name="week" width="52" height="19" rx="9.5" transform="translate(73.688 -1)" fill="url(#linear-gradient-2)"/>
          <text id="Week-3" data-name="Week" transform="translate(82.688)" fill="#dfdbf8" font-size="12" font-family="Poppins-Regular, Poppins"><tspan x="0" y="13">WEEK</tspan></text>
        </g>
        <g id="month-2" data-name="month">
          <rect id="month-3" data-name="month" width="60" height="19" rx="9.5" transform="translate(164.688 -1)" fill="url(#linear-gradient-2)"/>
          <text id="Month-4" data-name="Month" transform="translate(171.688)" fill="#dfdbf8" font-size="12" font-family="Poppins-Regular, Poppins"><tspan x="0" y="13">MONTH</tspan></text>
        </g>
        <g id="year">
          <rect id="year-2" data-name="year" width="52" height="19" rx="9.5" transform="translate(262.688 -1)" fill="url(#linear-gradient-2)"/>
          <text id="Year-3" data-name="Year" transform="translate(272.687)" fill="#dfdbf8" font-size="12" font-family="Poppins-Regular, Poppins"><tspan x="0" y="13">YEAR</tspan></text>
        </g>
      </g>
      <g id="Number" transform="translate(35.313 573)" opacity="0.5">
        <text id="Day-4" data-name="Day" transform="translate(-0.313 -42)" fill="#9895aa" font-size="10" font-family="Poppins-Regular, Poppins"><tspan x="0" y="11">3.5k</tspan></text>
        <text id="Week-4" data-name="Week" transform="translate(-3.313 -84)" fill="#9895aa" font-size="10" font-family="Poppins-Regular, Poppins"><tspan x="0" y="11">5.5k</tspan></text>
        <text id="Month-5" data-name="Month" transform="translate(-0.313 -127)" fill="#9895aa" font-size="10" font-family="Poppins-Regular, Poppins"><tspan x="0" y="11">7.5k</tspan></text>
        <text id="Year-4" data-name="Year" transform="translate(-3.313 -169)" fill="#9895aa" font-size="10" font-family="Poppins-Regular, Poppins"><tspan x="0" y="11">9.5k</tspan></text>
        <text id="Year-5" data-name="Year" transform="translate(-3.313 -212)" fill="#9895aa" font-size="10" font-family="Poppins-Regular, Poppins"><tspan x="0" y="11">11.5k</tspan></text>
        <text id="Year-6" data-name="Year" transform="translate(-3.313 -254)" fill="#9895aa" font-size="10" font-family="Poppins-Regular, Poppins"><tspan x="0" y="11">13.5k</tspan></text>
        <text id="Year-7" data-name="Year" transform="translate(-3.313 -297)" fill="#9895aa" font-size="10" font-family="Poppins-Regular, Poppins"><tspan x="0" y="11">15.5k</tspan></text>
      </g>
      <g id="Line" transform="translate(0 30)">
        <line id="Line_7" data-name="Line 7" x2="277" transform="translate(72.5 253.5)" opacity="0.4" stroke="#43405a" stroke-linecap="round" stroke-width="1" stroke-dasharray="6 10" fill="none"/>
        <line id="Line_89" data-name="Line 89" x2="277" transform="translate(72.5 296.5)" opacity="0.4" stroke="#43405a" stroke-linecap="round" stroke-width="1" stroke-dasharray="6 10" fill="none"/>
        <line id="Line_90" data-name="Line 90" x2="277" transform="translate(72.5 339.5)" opacity="0.4" stroke="#43405a" stroke-linecap="round" stroke-width="1" stroke-dasharray="6 10" fill="none"/>
        <line id="Line_91" data-name="Line 91" x2="277" transform="translate(72.5 382.5)" opacity="0.4" stroke="#43405a" stroke-linecap="round" stroke-width="1" stroke-dasharray="6 10" fill="none"/>
        <line id="Line_92" data-name="Line 92" x2="277" transform="translate(72.5 425.5)" opacity="0.4" stroke="#43405a" stroke-linecap="round" stroke-width="1" stroke-dasharray="6 10" fill="none"/>
        <line id="Line_93" data-name="Line 93" x2="277" transform="translate(72.5 468.5)" opacity="0.4" stroke="#43405a" stroke-linecap="round" stroke-width="1" stroke-dasharray="6 10" fill="none"/>
        <line id="Line_94" data-name="Line 94" x2="277" transform="translate(72.5 511.5)" opacity="0.4" stroke="#43405a" stroke-linecap="round" stroke-width="1" stroke-dasharray="6 10" fill="none"/>
      </g>
      <path id="ic_sort_24px" d="M3,18H9V16H3ZM3,6V8H21V6Zm0,7H15V11H3Z" transform="translate(22 22)" fill="#fff"/>
      <g id="Group_789" data-name="Group 789">
        <rect id="Rectangle_2" data-name="Rectangle 2" width="205" height="46" rx="5" transform="translate(85 738)" fill="url(#linear-gradient-2)"/>
        <rect id="Rectangle_3" data-name="Rectangle 3" width="51" height="46" rx="5" transform="translate(27 738)" fill="url(#linear-gradient-7)"/>
        <rect id="Rectangle_4" data-name="Rectangle 4" width="51" height="46" rx="5" transform="translate(298 738)" fill="url(#linear-gradient-7)"/>
        <text id="Crypto_Trade" data-name="Crypto Trade" transform="translate(144 766)" fill="#fff" font-size="13" font-family="Montserrat-Bold, Montserrat" font-weight="700"><tspan x="0" y="0">Crypto Trade</tspan></text>
        <path id="ic_trending_down_24px" d="M16,18l2.29-2.29-4.88-4.88-4,4L2,7.41,3.41,6l6,6,4-4,6.3,6.29L22,12v6Z" transform="translate(314 750)" fill="#fff"/>
        <path id="ic_trending_up_24px" d="M16,6l2.29,2.29-4.88,4.88-4-4L2,16.59,3.41,18l6-6,4,4,6.3-6.29L22,12V6Z" transform="translate(40 749)" fill="#fff"/>
      </g>
      <g id="Last_Transcation" data-name="Last Transcation">
        <rect id="Rectangle_5" data-name="Rectangle 5" width="322" height="33" rx="5" transform="translate(27 620)" fill="#172229" opacity="0.44"/>
        <rect id="Rectangle_6" data-name="Rectangle 6" width="322" height="33" rx="5" transform="translate(27 684)" fill="#172229" opacity="0.44"/>
        <text id="Market" transform="translate(25 607.535)" fill="#fff" font-size="11" font-family="Montserrat-Bold, Montserrat" font-weight="700" opacity="0.9"><tspan x="0" y="0">Market</tspan></text>
        <text id="Ethereum" transform="translate(65 640.698)" fill="#fff" font-size="11" font-family="Montserrat-Regular, Montserrat" opacity="0.9"><tspan x="0" y="0">Ethereum</tspan></text>
        <text id="_07_28_18" data-name="07/28/18" transform="translate(164.07 640.698)" fill="#fff" font-size="11" font-family="Montserrat-Regular, Montserrat" opacity="0.9"><tspan x="0" y="0">07/28/18</tspan></text>
        <text id="_-44.5" data-name="-44.5" transform="translate(304.907 640.698)" fill="#e2438b" font-size="11" font-family="Montserrat-SemiBold, Montserrat" font-weight="600" opacity="0.9"><tspan x="0" y="0">-44.5</tspan></text>
        <text id="_2.34" data-name="+2.34" transform="translate(304.907 673.86)" fill="#0aebaa" font-size="11" font-family="Montserrat-SemiBold, Montserrat" font-weight="600" opacity="0.9"><tspan x="0" y="0">+2.34</tspan></text>
        <text id="_-10.9" data-name="-10.9" transform="translate(304.907 705)" fill="#e2438b" font-size="11" font-family="Montserrat-SemiBold, Montserrat" font-weight="600" opacity="0.9"><tspan x="0" y="0">-10.9</tspan></text>
        <text id="_07_28_18-2" data-name="07/28/18" transform="translate(164.07 673.86)" fill="#fff" font-size="11" font-family="Montserrat-Regular, Montserrat" opacity="0.9"><tspan x="0" y="0">07/28/18</tspan></text>
        <text id="_07_28_18-3" data-name="07/28/18" transform="translate(164.07 705)" fill="#fff" font-size="11" font-family="Montserrat-Regular, Montserrat" opacity="0.9"><tspan x="0" y="0">07/28/18</tspan></text>
        <text id="Ripple" transform="translate(65 673.86)" fill="#fff" font-size="11" font-family="Montserrat-Regular, Montserrat" opacity="0.9"><tspan x="0" y="0">Ripple</tspan></text>
        <text id="Litecoin" transform="translate(65 705)" fill="#fff" font-size="11" font-family="Montserrat-Regular, Montserrat" opacity="0.9"><tspan x="0" y="0">Litecoin</tspan></text>
        <path id="ic_trending_up_24px-2" data-name="ic_trending_up_24px" d="M10.75,6l1.431,1.431-3.05,3.05-2.5-2.5L2,12.619l.881.881,3.75-3.75,2.5,2.5,3.937-3.931L14.5,9.75V6Z" transform="matrix(0.259, 0.966, -0.966, 0.259, 55.533, 625.758)" fill="#f24286"/>
        <path id="ic_trending_up_24px-3" data-name="ic_trending_up_24px" d="M10.75,6l1.431,1.431-3.05,3.05-2.5-2.5L2,12.619l.881.881,3.75-3.75,2.5,2.5,3.937-3.931L14.5,9.75V6Z" transform="translate(40 660.5)" fill="#0aebaa"/>
        <path id="ic_trending_up_24px-4" data-name="ic_trending_up_24px" d="M10.75,6l1.431,1.431-3.05,3.05-2.5-2.5L2,12.619l.881.881,3.75-3.75,2.5,2.5,3.937-3.931L14.5,9.75V6Z" transform="matrix(0.259, 0.966, -0.966, 0.259, 55.533, 690.758)" fill="#f24286"/>
      </g>
      <g id="BTC_Wallet" data-name="BTC Wallet" transform="translate(0 10)">
        <rect id="Rectangle_7" data-name="Rectangle 7" width="322" height="153" rx="5" transform="translate(27 40)" fill="#172229" opacity="0.4"/>
        <text id="Balance" transform="translate(46 112)" fill="#fff" font-size="15" font-family="Montserrat-Regular, Montserrat" opacity="0.5"><tspan x="0" y="0">Balance</tspan></text>
        <text id="USD" transform="translate(298 115)" fill="#fff" font-size="12" font-family="Montserrat-Regular, Montserrat" opacity="0.5"><tspan x="0" y="0">USD</tspan></text>
        <text id="EUR" transform="translate(299 155)" fill="#fff" font-size="12" font-family="Montserrat-Regular, Montserrat" opacity="0.5"><tspan x="0" y="0">EUR</tspan></text>
        <text id="_42.3312" data-name="42.3312" transform="translate(46 143)" fill="#fff" font-size="29" font-family="Montserrat-Bold, Montserrat" font-weight="700" opacity="0.9"><tspan x="0" y="0">42.3312</tspan></text>
        <text id="BTC" transform="translate(294 135)" fill="#fff" font-size="15" font-family="Montserrat-Bold, Montserrat" font-weight="700" opacity="0.9"><tspan x="0" y="0">BTC</tspan></text>
        <text id="_123_451.22" data-name="123,451.22" transform="translate(46 162)" fill="#fff" font-size="11" font-family="Montserrat-ExtraLight, Montserrat" font-weight="200" opacity="0.5"><tspan x="0" y="0">123,451.22</tspan></text>
        <path id="Path_1-2" data-name="Path 1" d="M917.686,593.073h322" transform="translate(-890.686 -513)" fill="none" stroke="#262f34" stroke-width="1"/>
        <path id="Path_2" data-name="Path 2" d="M917.686,593.073h322" transform="translate(-890.686 -512)" fill="none" stroke="#151c20" stroke-width="1"/>
        <text id="BTC_Wallet-2" data-name="BTC Wallet" transform="translate(154 63)" fill="#fff" font-size="12" font-family="Montserrat-Bold, Montserrat" font-weight="700"><tspan x="0" y="0">BTC Wallet</tspan></text>
      </g>
      <text id="Year-8" data-name="Year" transform="translate(73 561)" fill="#9895aa" font-size="10" font-family="Poppins-Regular, Poppins" opacity="0.503"><tspan x="0" y="11">Dec 1</tspan></text>
      <text id="Year-9" data-name="Year" transform="translate(110 561)" fill="#9895aa" font-size="10" font-family="Poppins-Regular, Poppins" opacity="0.503"><tspan x="0" y="11">Dec 2</tspan></text>
      <text id="Year-10" data-name="Year" transform="translate(150 561)" fill="#9895aa" font-size="10" font-family="Poppins-Regular, Poppins" opacity="0.503"><tspan x="0" y="11">Dec 3</tspan></text>
      <text id="Year-11" data-name="Year" transform="translate(192 561)" fill="#9895aa" font-size="10" font-family="Poppins-Regular, Poppins" opacity="0.503"><tspan x="0" y="11">Dec 4</tspan></text>
      <text id="Year-12" data-name="Year" transform="translate(234 561)" fill="#9895aa" font-size="10" font-family="Poppins-Regular, Poppins" opacity="0.503"><tspan x="0" y="11">Dec 5</tspan></text>
      <text id="Year-13" data-name="Year" transform="translate(278 561)" fill="#9895aa" font-size="10" font-family="Poppins-Regular, Poppins" opacity="0.503"><tspan x="0" y="11">Dec 6</tspan></text>
      <text id="Year-14" data-name="Year" transform="translate(321 561)" fill="#9895aa" font-size="10" font-family="Poppins-Regular, Poppins" opacity="0.503"><tspan x="0" y="11">Dec 7</tspan></text>
      <g transform="matrix(1, 0, 0, 1, 0, 0)" filter="url(#PATH_1)">
        <path id="PATH_1-3" data-name="PATH 1" d="M162.987,372.67l6.759-3.383,6.722-9.973,6.674-3.959,5.941,3.959,6.95,6.782,7.337,5,3.248,11.337,5.708,36.5,11.445-59.616,12.039,11.78L247.2,379.2l11.447-21.736,12.782-5.09,10.516-10.1,2.976,15.188,2.439,99.085,13.424-85.458,2.47-13.627,7.809,34.762,8.875-14.827,10.009-22.047,8.787,61.155,8.057-37.307,8.117,30.267,10.071-17.241,4.232-14.827,7.2-15.437,8.361,17.239,3.33,10.565,9.849,41.28V382.431l5.138,9.8,5.429,3.148,9.439,2.579,5.885,11.514,3.8,15.911,6.857,10.927" transform="translate(-89.89 14.74)" fill="none" stroke="#ff4991" stroke-linecap="round" stroke-width="2"/>
      </g>
      <circle id="Ellipse_1" data-name="Ellipse 1" cx="7" cy="7" r="7" transform="translate(185 350)" fill="#0aebaa"/>
      <circle id="Ellipse_2" data-name="Ellipse 2" cx="4" cy="4" r="4" transform="translate(188 353)" fill="#1d282e"/>
      <g transform="matrix(1, 0, 0, 1, 0, 0)" filter="url(#Path_285)">
        <path id="Path_285-2" data-name="Path 285" d="M6046.5,392.357l5.581-6.292s4.662-1.5,5.1-3.6a32.886,32.886,0,0,1,2.067-5.522l6.095-4.42,9.8,6.252,11.31,9.008,9.376,46.8,11.789-57.643,22.5,19.077,11.946-19.077,14.456-7.086,8.6-11.009,6.19,114.859,15.085-96.764,9.275,32.719,8.68-17.307,9-22.5,9.123,64.728,8.25-38.566,7.33,31.068,10.707-17.426,4.549-17.307,6.354-13.58,10.3,19.228,12.017,48.895V400.256l6.7,9.408,12.842,4.514,6.317,11.086,3.6,18.034,8.162,10.881v75.993H6046.5V392.357" transform="translate(-5974 -2)" fill="url(#linear-gradient-9)"/>
      </g>
      <g id="Mask_Group_3" data-name="Mask Group 3" transform="translate(-5576 26)" clip-path="url(#clip-path)">
        <text id="_0_1_2_3_4_5_6_7_8_9" data-name="0
1
2
3
4
5
6
7
8
9" transform="translate(5737 299)" fill="#fff" font-size="12" font-family="Poppins-Regular, Poppins"><tspan x="0" y="0">0</tspan><tspan x="0" y="18">1</tspan><tspan x="0" y="36">2</tspan><tspan x="0" y="54">3</tspan><tspan x="0" y="72">4</tspan><tspan x="0" y="90">5</tspan><tspan x="0" y="108">6</tspan><tspan x="0" y="126">7</tspan><tspan x="0" y="144">8</tspan><tspan x="0" y="162">9</tspan></text>
        <text id="_0_1_2_3_4_5_6_7_8_9-2" data-name="0
1
2
3
4
5
6
7
8
9" transform="translate(5785 166)" fill="#fff" font-size="12" font-family="Poppins-Regular, Poppins"><tspan x="0" y="0">0</tspan><tspan x="0" y="18">1</tspan><tspan x="0" y="36">2</tspan><tspan x="0" y="54">3</tspan><tspan x="0" y="72">4</tspan><tspan x="0" y="90">5</tspan><tspan x="0" y="108">6</tspan><tspan x="0" y="126">7</tspan><tspan x="0" y="144">8</tspan><tspan x="0" y="162">9</tspan></text>
        <text id="_0_1_2_3_4_5_6_7_8_9_0_1_2_3_4_5_6_7_8_9" data-name="0
1
2
3
4
5
6
7
8
9
0
1
2
3
4
5
6
7
8
9" transform="translate(5749 90)" fill="#fff" font-size="12" font-family="Poppins-Regular, Poppins"><tspan x="0" y="0">0</tspan><tspan x="0" y="18">1</tspan><tspan x="0" y="36">2</tspan><tspan x="0" y="54">3</tspan><tspan x="0" y="72">4</tspan><tspan x="0" y="90">5</tspan><tspan x="0" y="108">6</tspan><tspan x="0" y="126">7</tspan><tspan x="0" y="144">8</tspan><tspan x="0" y="162">9</tspan><tspan x="0" y="180">0</tspan><tspan x="0" y="198">1</tspan><tspan x="0" y="216">2</tspan><tspan x="0" y="234">3</tspan><tspan x="0" y="252">4</tspan><tspan x="0" y="270">5</tspan><tspan x="0" y="288">6</tspan><tspan x="0" y="306">7</tspan><tspan x="0" y="324">8</tspan><tspan x="0" y="342">9</tspan></text>
        <text id="_0_1_2_3_4_5_6_7_8_9_0_1_2_3_4_5_6_7_8_9-2" data-name="0
1
2
3
4
5
6
7
8
9
0
1
2
3
4
5
6
7
8
9" transform="translate(5797 -43)" fill="#fff" font-size="12" font-family="Poppins-Regular, Poppins"><tspan x="0" y="0">0</tspan><tspan x="0" y="18">1</tspan><tspan x="0" y="36">2</tspan><tspan x="0" y="54">3</tspan><tspan x="0" y="72">4</tspan><tspan x="0" y="90">5</tspan><tspan x="0" y="108">6</tspan><tspan x="0" y="126">7</tspan><tspan x="0" y="144">8</tspan><tspan x="0" y="162">9</tspan><tspan x="0" y="180">0</tspan><tspan x="0" y="198">1</tspan><tspan x="0" y="216">2</tspan><tspan x="0" y="234">3</tspan><tspan x="0" y="252">4</tspan><tspan x="0" y="270">5</tspan><tspan x="0" y="288">6</tspan><tspan x="0" y="306">7</tspan><tspan x="0" y="324">8</tspan><tspan x="0" y="342">9</tspan></text>
        <text id="_0_1_2_3_4_5_6_7_8_9_0_1_2_3_4_5_6_7_8_9_0_1_2_3_4_5_6_7_8_9_0_1_2_3_4_5_6_7_8_9" data-name="0
1
2
3
4
5
6
7
8
9
0
1
2
3
4
5
6
7
8
9
0
1
2
3
4
5
6
7
8
9
0
1
2
3
4
5
6
7
8
9" transform="translate(5761 185)" fill="#fff" font-size="12" font-family="Poppins-Regular, Poppins"><tspan x="0" y="0">0</tspan><tspan x="0" y="18">1</tspan><tspan x="0" y="36">2</tspan><tspan x="0" y="54">3</tspan><tspan x="0" y="72">4</tspan><tspan x="0" y="90">5</tspan><tspan x="0" y="108">6</tspan><tspan x="0" y="126">7</tspan><tspan x="0" y="144">8</tspan><tspan x="0" y="162">9</tspan><tspan x="0" y="180">0</tspan><tspan x="0" y="198">1</tspan><tspan x="0" y="216">2</tspan><tspan x="0" y="234">3</tspan><tspan x="0" y="252">4</tspan><tspan x="0" y="270">5</tspan><tspan x="0" y="288">6</tspan><tspan x="0" y="306">7</tspan><tspan x="0" y="324">8</tspan><tspan x="0" y="342">9</tspan><tspan x="0" y="360">0</tspan><tspan x="0" y="378">1</tspan><tspan x="0" y="396">2</tspan><tspan x="0" y="414">3</tspan><tspan x="0" y="432">4</tspan><tspan x="0" y="450">5</tspan><tspan x="0" y="468">6</tspan><tspan x="0" y="486">7</tspan><tspan x="0" y="504">8</tspan><tspan x="0" y="522">9</tspan><tspan x="0" y="540">0</tspan><tspan x="0" y="558">1</tspan><tspan x="0" y="576">2</tspan><tspan x="0" y="594">3</tspan><tspan x="0" y="612">4</tspan><tspan x="0" y="630">5</tspan><tspan x="0" y="648">6</tspan><tspan x="0" y="666">7</tspan><tspan x="0" y="684">8</tspan><tspan x="0" y="702">9</tspan></text>
        <text id="_0_1_2_3_4_5_6_7_8_9_0_1_2_3_4_5_6_7_8_9_0_1_2_3_4_5_6_7_8_9_0_1_2_3_4_5_6_7_8_9_0_1_2_3_4_5_6_7_8_9_0_1_2_3_4_5_6_7_8_9_0_1_2_3_4_5_6_7_8_9_0_1_2_3_4_5_6_7_8_9" data-name="0
1
2
3
4
5
6
7
8
9
0
1
2
3
4
5
6
7
8
9
0
1
2
3
4
5
6
7
8
9
0
1
2
3
4
5
6
7
8
9
0
1
2
3
4
5
6
7
8
9
0
1
2
3
4
5
6
7
8
9
0
1
2
3
4
5
6
7
8
9
0
1
2
3
4
5
6
7
8
9" transform="translate(5773 261)" fill="#fff" font-size="12" font-family="Poppins-Regular, Poppins"><tspan x="0" y="0">0</tspan><tspan x="0" y="18">1</tspan><tspan x="0" y="36">2</tspan><tspan x="0" y="54">3</tspan><tspan x="0" y="72">4</tspan><tspan x="0" y="90">5</tspan><tspan x="0" y="108">6</tspan><tspan x="0" y="126">7</tspan><tspan x="0" y="144">8</tspan><tspan x="0" y="162">9</tspan><tspan x="0" y="180">0</tspan><tspan x="0" y="198">1</tspan><tspan x="0" y="216">2</tspan><tspan x="0" y="234">3</tspan><tspan x="0" y="252">4</tspan><tspan x="0" y="270">5</tspan><tspan x="0" y="288">6</tspan><tspan x="0" y="306">7</tspan><tspan x="0" y="324">8</tspan><tspan x="0" y="342">9</tspan><tspan x="0" y="360">0</tspan><tspan x="0" y="378">1</tspan><tspan x="0" y="396">2</tspan><tspan x="0" y="414">3</tspan><tspan x="0" y="432">4</tspan><tspan x="0" y="450">5</tspan><tspan x="0" y="468">6</tspan><tspan x="0" y="486">7</tspan><tspan x="0" y="504">8</tspan><tspan x="0" y="522">9</tspan><tspan x="0" y="540">0</tspan><tspan x="0" y="558">1</tspan><tspan x="0" y="576">2</tspan><tspan x="0" y="594">3</tspan><tspan x="0" y="612">4</tspan><tspan x="0" y="630">5</tspan><tspan x="0" y="648">6</tspan><tspan x="0" y="666">7</tspan><tspan x="0" y="684">8</tspan><tspan x="0" y="702">9</tspan><tspan x="0" y="720">0</tspan><tspan x="0" y="738">1</tspan><tspan x="0" y="756">2</tspan><tspan x="0" y="774">3</tspan><tspan x="0" y="792">4</tspan><tspan x="0" y="810">5</tspan><tspan x="0" y="828">6</tspan><tspan x="0" y="846">7</tspan><tspan x="0" y="864">8</tspan><tspan x="0" y="882">9</tspan><tspan x="0" y="900">0</tspan><tspan x="0" y="918">1</tspan><tspan x="0" y="936">2</tspan><tspan x="0" y="954">3</tspan><tspan x="0" y="972">4</tspan><tspan x="0" y="990">5</tspan><tspan x="0" y="1008">6</tspan><tspan x="0" y="1026">7</tspan><tspan x="0" y="1044">8</tspan><tspan x="0" y="1062">9</tspan><tspan x="0" y="1080">0</tspan><tspan x="0" y="1098">1</tspan><tspan x="0" y="1116">2</tspan><tspan x="0" y="1134">3</tspan><tspan x="0" y="1152">4</tspan><tspan x="0" y="1170">5</tspan><tspan x="0" y="1188">6</tspan><tspan x="0" y="1206">7</tspan><tspan x="0" y="1224">8</tspan><tspan x="0" y="1242">9</tspan><tspan x="0" y="1260">0</tspan><tspan x="0" y="1278">1</tspan><tspan x="0" y="1296">2</tspan><tspan x="0" y="1314">3</tspan><tspan x="0" y="1332">4</tspan><tspan x="0" y="1350">5</tspan><tspan x="0" y="1368">6</tspan><tspan x="0" y="1386">7</tspan><tspan x="0" y="1404">8</tspan><tspan x="0" y="1422">9</tspan></text>
      </g>
    </g>
  </g>
</svg>
