<svg xmlns="http://www.w3.org/2000/svg" xmlns:xlink="http://www.w3.org/1999/xlink" width="750" height="799" viewBox="0 0 750 799">
  <defs>
    <linearGradient id="linear-gradient" x1="0.887" y1="0.201" x2="0.441" y2="0.549" gradientUnits="objectBoundingBox">
      <stop offset="0" stop-color="#ed4de8"/>
      <stop offset="1" stop-color="#1e95e5"/>
    </linearGradient>
    <linearGradient id="linear-gradient-2" y1="1" x2="1" gradientUnits="objectBoundingBox">
      <stop offset="0" stop-color="#16162a"/>
      <stop offset="1" stop-color="#28283e"/>
    </linearGradient>
    <linearGradient id="linear-gradient-3" x1="1.356" y1="-0.588" x2="0.186" y2="1.498" gradientUnits="objectBoundingBox">
      <stop offset="0" stop-color="#a148a3"/>
      <stop offset="1" stop-color="#f24285"/>
    </linearGradient>
    <filter id="PATH_1" x="252.6" y="503.062" width="289.076" height="181.951" filterUnits="userSpaceOnUse">
      <feOffset dy="3" input="SourceAlpha"/>
      <feGaussianBlur stdDeviation="3" result="blur"/>
      <feFlood flood-opacity="0.161"/>
      <feComposite operator="in" in2="blur"/>
      <feComposite in="SourceGraphic"/>
    </filter>
    <linearGradient id="linear-gradient-7" x1="0.5" y1="-0.018" x2="0.5" y2="1" gradientUnits="objectBoundingBox">
      <stop offset="0" stop-color="#ff4991" stop-opacity="0.102"/>
      <stop offset="1" stop-color="#ff4991" stop-opacity="0"/>
    </linearGradient>
    <filter id="Path_8" x="249.943" y="506.227" width="286.374" height="198.241" filterUnits="userSpaceOnUse">
      <feOffset dy="3" input="SourceAlpha"/>
      <feGaussianBlur stdDeviation="3" result="blur-2"/>
      <feFlood flood-opacity="0.161"/>
      <feComposite operator="in" in2="blur-2"/>
      <feComposite in="SourceGraphic"/>
    </filter>
  </defs>
  <g id="phone3" transform="translate(-10179.305 7588.909)">
    <g id="phone" transform="translate(10179.305 -7588.909)">
      <ellipse id="phone-bg" cx="375" cy="355.788" rx="375" ry="355.788" transform="translate(0 0)" fill="url(#linear-gradient)"/>
      <g id="phone-act" transform="translate(177.696 166.484)">
        <g id="Group_812" data-name="Group 812">
          <g id="iPhone">
            <path id="Union_1" data-name="Union 1" d="M3.623,632.516V278.1a1.991,1.991,0,0,1-.846.187H2a2,2,0,0,1-2-2V224.57a2,2,0,0,1,2-2h.777a1.992,1.992,0,0,1,.846.187V209.716a1.992,1.992,0,0,1-.846.187H2a2,2,0,0,1-2-2V155.146a2,2,0,0,1,2-2h.777a1.992,1.992,0,0,1,.846.187V130.382a1.992,1.992,0,0,1-.846.187H2a2,2,0,0,1-2-2V102.55a2,2,0,0,1,2-2h.777a1.992,1.992,0,0,1,.846.187V54a54,54,0,0,1,54-54h280.8a54,54,0,0,1,54,54V171.318h.463a2,2,0,0,1,2,2v92.064a2,2,0,0,1-2,2h-.463V632.516Z" fill="#3b3b3b"/>
            <path id="Subtraction_1" data-name="Subtraction 1" d="M355.267,596.707H0V33A32.972,32.972,0,0,1,33,0H91V3.926a15.017,15.017,0,0,0,15,15H246.824a15.017,15.017,0,0,0,15-15V0h60.443a32.972,32.972,0,0,1,33,33V596.706Z" transform="translate(20.284 14.358)" fill="#262626"/>
          </g>
          <g id="Group_793" data-name="Group 793" transform="translate(20 2)">
            <g id="Group_795" data-name="Group 795">
              <g id="Group_792" data-name="Group 792" transform="translate(0 12)">
                <g id="Group_791" data-name="Group 791">
                  <path id="BG" d="M31,0H325a31,31,0,0,1,31,31V618a0,0,0,0,1,0,0H0a0,0,0,0,1,0,0V31A31,31,0,0,1,31,0Z" fill="url(#linear-gradient-2)"/>
                  <g id="Number" transform="translate(34.201 277)" opacity="0.5">
                    <text id="Day" transform="translate(3 255)" fill="#9895aa" font-size="10" font-family="Poppins-Regular, Poppins"><tspan x="0" y="11">3.5k</tspan></text>
                    <text id="Week" transform="translate(0 213)" fill="#9895aa" font-size="10" font-family="Poppins-Regular, Poppins"><tspan x="0" y="11">5.5k</tspan></text>
                    <text id="Month" transform="translate(3 170)" fill="#9895aa" font-size="10" font-family="Poppins-Regular, Poppins"><tspan x="0" y="11">7.5k</tspan></text>
                    <text id="Year" transform="translate(0 128)" fill="#9895aa" font-size="10" font-family="Poppins-Regular, Poppins"><tspan x="0" y="11">9.5k</tspan></text>
                    <text id="Year-2" data-name="Year" transform="translate(0 85)" fill="#9895aa" font-size="10" font-family="Poppins-Regular, Poppins"><tspan x="0" y="11">11.5k</tspan></text>
                    <text id="Year-3" data-name="Year" transform="translate(0 43)" fill="#9895aa" font-size="10" font-family="Poppins-Regular, Poppins"><tspan x="0" y="11">13.5k</tspan></text>
                    <text id="Year-4" data-name="Year" fill="#9895aa" font-size="10" font-family="Poppins-Regular, Poppins"><tspan x="0" y="11">15.5k</tspan></text>
                  </g>
                  <g id="Line" transform="translate(47.5 273.5)">
                    <line id="Line_7" data-name="Line 7" x2="281.856" opacity="0.4" stroke="#43405a" stroke-linecap="round" stroke-width="1" stroke-dasharray="6 10" fill="none"/>
                    <line id="Line_89" data-name="Line 89" x2="281.856" transform="translate(0 43)" opacity="0.4" stroke="#43405a" stroke-linecap="round" stroke-width="1" stroke-dasharray="6 10" fill="none"/>
                    <line id="Line_90" data-name="Line 90" x2="281.856" transform="translate(0 86)" opacity="0.4" stroke="#43405a" stroke-linecap="round" stroke-width="1" stroke-dasharray="6 10" fill="none"/>
                    <line id="Line_91" data-name="Line 91" x2="281.856" transform="translate(0 129)" opacity="0.4" stroke="#43405a" stroke-linecap="round" stroke-width="1" stroke-dasharray="6 10" fill="none"/>
                    <line id="Line_92" data-name="Line 92" x2="281.856" transform="translate(0 172)" opacity="0.4" stroke="#43405a" stroke-linecap="round" stroke-width="1" stroke-dasharray="6 10" fill="none"/>
                    <line id="Line_93" data-name="Line 93" x2="281.856" transform="translate(0 215)" opacity="0.4" stroke="#43405a" stroke-linecap="round" stroke-width="1" stroke-dasharray="6 10" fill="none"/>
                    <line id="Line_94" data-name="Line 94" x2="281.856" transform="translate(0 258)" opacity="0.4" stroke="#43405a" stroke-linecap="round" stroke-width="1" stroke-dasharray="6 10" fill="none"/>
                  </g>
                  <path id="ic_sort_24px" d="M3,18H9V16H3ZM3,6V8H21V6Zm0,7H15V11H3Z" transform="translate(24.201 23)" fill="#fff"/>
                  <g id="BTC_Wallet" data-name="BTC Wallet" transform="translate(29 51)">
                    <rect id="Rectangle_7" data-name="Rectangle 7" width="300" height="153" rx="5" fill="#172229" opacity="0.4"/>
                    <text id="Balance" transform="translate(19 72)" fill="#fff" font-size="15" font-family="Montserrat-Regular, Montserrat" opacity="0.5"><tspan x="0" y="0">Balance</tspan></text>
                    <text id="USD" transform="translate(249 75)" fill="#fff" font-size="12" font-family="Montserrat-Regular, Montserrat" opacity="0.5"><tspan x="0" y="0">USD</tspan></text>
                    <text id="EUR" transform="translate(250 115)" fill="#fff" font-size="12" font-family="Montserrat-Regular, Montserrat" opacity="0.5"><tspan x="0" y="0">EUR</tspan></text>
                    <text id="_42.3312" data-name="42.3312" transform="translate(19 103)" fill="#fff" font-size="29" font-family="Montserrat-Bold, Montserrat" font-weight="700" opacity="0.9"><tspan x="0" y="0">42.3312</tspan></text>
                    <text id="BTC" transform="translate(245 95)" fill="#fff" font-size="15" font-family="Montserrat-Bold, Montserrat" font-weight="700" opacity="0.9"><tspan x="0" y="0">BTC</tspan></text>
                    <text id="_123_451.22" data-name="123,451.22" transform="translate(19 122)" fill="#fff" font-size="11" font-family="Montserrat-ExtraLight, Montserrat" font-weight="200" opacity="0.5"><tspan x="0" y="0">123,451.22</tspan></text>
                    <path id="Path_1-2" data-name="Path 1" d="M917.686,593.073h299.656" transform="translate(-917.485 -553)" fill="none" stroke="#262f34" stroke-width="1"/>
                    <path id="Path_2" data-name="Path 2" d="M917.686,593.073h299.656" transform="translate(-917.485 -552)" fill="none" stroke="#151c20" stroke-width="1"/>
                    <text id="BTC_Wallet-2" data-name="BTC Wallet" transform="translate(116 23)" fill="#fff" font-size="12" font-family="Montserrat-Bold, Montserrat" font-weight="700"><tspan x="0" y="0">BTC Wallet</tspan></text>
                  </g>
                  <text id="Year-5" data-name="Year" transform="translate(70.852 562)" fill="#9895aa" font-size="10" font-family="Poppins-Regular, Poppins" opacity="0.503"><tspan x="0" y="11">Dec </tspan></text>
                  <text id="Year-6" data-name="Year" transform="translate(105.647 562)" fill="#9895aa" font-size="10" font-family="Poppins-Regular, Poppins" opacity="0.503"><tspan x="0" y="11">Dec 2</tspan></text>
                  <text id="Year-7" data-name="Year" transform="translate(143.262 562)" fill="#9895aa" font-size="10" font-family="Poppins-Regular, Poppins" opacity="0.503"><tspan x="0" y="11">Dec 3</tspan></text>
                  <text id="Year-8" data-name="Year" transform="translate(182.759 562)" fill="#9895aa" font-size="10" font-family="Poppins-Regular, Poppins" opacity="0.503"><tspan x="0" y="11">Dec 4</tspan></text>
                  <text id="Year-9" data-name="Year" transform="translate(222.255 562)" fill="#9895aa" font-size="10" font-family="Poppins-Regular, Poppins" opacity="0.503"><tspan x="0" y="11">Dec 5</tspan></text>
                  <text id="Year-10" data-name="Year" transform="translate(263.632 562)" fill="#9895aa" font-size="10" font-family="Poppins-Regular, Poppins" opacity="0.503"><tspan x="0" y="11">Dec 6</tspan></text>
                  <text id="Year-11" data-name="Year" transform="translate(304.069 562)" fill="#9895aa" font-size="10" font-family="Poppins-Regular, Poppins" opacity="0.503"><tspan x="0" y="11">Dec 7</tspan></text>
                  <g id="buttons" transform="translate(15 229)">
                    <g id="day-2" data-name="day">
                      <rect id="day-3" data-name="day" width="52" height="19" rx="9.5" fill="url(#linear-gradient-3)"/>
                      <text id="Day-4" data-name="Day" transform="translate(12 1)" fill="#dfdbf8" font-size="12" font-family="Poppins-SemiBold, Poppins" font-weight="600"><tspan x="0" y="13">DAY</tspan></text>
                    </g>
                    <g id="week-2" data-name="week" transform="translate(86)">
                      <rect id="week-3" data-name="week" width="52" height="19" rx="9.5" fill="url(#linear-gradient-3)"/>
                      <text id="Week-4" data-name="Week" transform="translate(9 1)" fill="#dfdbf8" font-size="12" font-family="Poppins-Regular, Poppins"><tspan x="0" y="13">WEEK</tspan></text>
                    </g>
                    <g id="month-2" data-name="month" transform="translate(177)">
                      <rect id="month-3" data-name="month" width="60" height="19" rx="9.5" fill="url(#linear-gradient-3)"/>
                      <text id="Month-4" data-name="Month" transform="translate(7 1)" fill="#dfdbf8" font-size="12" font-family="Poppins-Regular, Poppins"><tspan x="0" y="13">MONTH</tspan></text>
                    </g>
                    <g id="year-12" data-name="year" transform="translate(275)">
                      <rect id="year-13" data-name="year" width="52" height="19" rx="9.5" fill="url(#linear-gradient-3)"/>
                      <text id="Year-14" data-name="Year" transform="translate(10 1)" fill="#dfdbf8" font-size="12" font-family="Poppins-Regular, Poppins"><tspan x="0" y="13">YEAR</tspan></text>
                    </g>
                  </g>
                  <g transform="matrix(1, 0, 0, 1, -197.7, -180.48)" filter="url(#PATH_1)">
                    <path id="PATH_1-3" data-name="PATH 1" d="M166.137,504.447l6.759-3.383,11.893-91.771,9.453-18.19,5.548-3.119,3.581-16.888,3.248,11.337,10.111-7.417,5.955,6.329,8.891,4.642,9.337-4.642-1.489,30.647,9.337-10.971,8.446-13.528,10.768,10.465,6.072-25.119,8.864,13.148,7.522-16.7,7.458,1.808-2.074,48.383,11.632-7.487,4.419-20.889,10.941,18.19,9.054-21.8,10.547-7.236,11.457-13.637,4.034-11.914,9.761-10.943L379.67,377.54l11.084-12.971,7.191,17.862,5.138,9.8,5.429,3.148,9.439,2.579,5.885,11.514,3.8,15.911,6.857,10.927" transform="translate(96.81 167.22)" fill="none" stroke="#ff4991" stroke-linecap="round" stroke-width="2"/>
                  </g>
                  <g transform="matrix(1, 0, 0, 1, -197.7, -180.48)" filter="url(#Path_8)">
                    <path id="Path_8-2" data-name="Path 8" d="M6922.247,541.983V521.29l6.426-3.127,12.5-93.1,9.918-17.811,4.126-2.224,4.309-16.674,3.323,10.245,10.14-7,6.334,7,8.669,4.247,8.168-4.247-.964,30.309,10.677-11.747,7.6-12.133,10.577,9.457,6.034-25.193,8.655,13.553,8.431-16.927,7.045,2.019-2.231,48.31,11.438-7.339,4.655-21.123,10.945,18.195,8.833-21.558,10.462-7.341,12.259-13.892,3.387-11.887,9.347-9.562,6.178,14.291,6.292,18.244,11.5-13.181,12.113,28.07,5.032,2.973,10.012,2.585,5.588,12.18,3.793,15.7,6.8,10.765v88.613Z" transform="translate(-6663.3 150.48)" fill="url(#linear-gradient-7)"/>
                  </g>
                  <g id="cursor_group" transform="translate(249 303)">
                    <g id="cursor" transform="translate(11 17)" fill="none" stroke="#0aebaa" stroke-width="4">
                      <circle cx="7" cy="7" r="7" stroke="none"/>
                      <circle cx="7" cy="7" r="5" fill="none"/>
                    </g>
                    <text id="_" data-name="&gt;" transform="translate(25 8) rotate(90)" fill="#f6cbdd" font-size="10" font-family="OpenSans-Semibold, Open Sans" font-weight="600"><tspan x="-2.854" y="0">&gt;</tspan></text>
                    <text id="_1354" data-name="1354" transform="translate(11 11)" fill="#fbfbfb" font-size="10" font-family="OpenSans-Semibold, Open Sans" font-weight="600"><tspan x="-11.416" y="0">1354</tspan></text>
                  </g>
                </g>
              </g>
              <g id="Group_794" data-name="Group 794" transform="translate(93)">
                <rect id="Rectangle_1487" data-name="Rectangle 1487" width="171" height="41" rx="12" fill="#3b3b3b"/>
                <rect id="Rectangle_1488" data-name="Rectangle 1488" width="45.319" height="5.771" rx="2.885" transform="translate(90.326 21.62)" fill="#262626"/>
                <circle id="Ellipse_16" data-name="Ellipse 16" cx="7" cy="7" r="7" transform="translate(36.043 17.573)" fill="#262626"/>
                <circle id="Ellipse_17" data-name="Ellipse 17" cx="7" cy="7" r="7" transform="translate(68.043 17.573)" fill="#262626"/>
              </g>
            </g>
          </g>
        </g>
      </g>
    </g>
  </g>
</svg>
