<svg xmlns="http://www.w3.org/2000/svg" xmlns:xlink="http://www.w3.org/1999/xlink" width="333.3" height="381" viewBox="0 0 750 799">
            <defs>
              <linearGradient id="linear-gradient" x1="0.235" y1="0.935" x2="0.647" y2="0.411" gradientUnits="objectBoundingBox">
                <stop offset="0" stop-color="#ed4de8"/>
                <stop offset="1" stop-color="#1e95e5"/>
              </linearGradient>
              <linearGradient id="linear-gradient-2" y1="1" x2="1" gradientUnits="objectBoundingBox">
                <stop offset="0" stop-color="#16162a"/>
                <stop offset="1" stop-color="#28283e"/>
              </linearGradient>
              <filter id="PATH_1" x="235.453" y="568.963" width="297.082" height="134.397" filterUnits="userSpaceOnUse">
                <feOffset dy="3" input="SourceAlpha"/>
                <feGaussianBlur stdDeviation="3" result="blur"/>
                <feFlood flood-opacity="0.161"/>
                <feComposite operator="in" in2="blur"/>
                <feComposite in="SourceGraphic"/>
              </filter>
              <linearGradient id="linear-gradient-3" x1="1.356" y1="-0.588" x2="0.186" y2="1.498" gradientUnits="objectBoundingBox">
                <stop offset="0" stop-color="#a148a3"/>
                <stop offset="1" stop-color="#f24285"/>
              </linearGradient>
              <linearGradient id="linear-gradient-7" x1="0.5" y1="-0.018" x2="0.5" y2="1" gradientUnits="objectBoundingBox">
                <stop offset="0" stop-color="#ff4991" stop-opacity="0.102"/>
                <stop offset="1" stop-color="#ff4991" stop-opacity="0"/>
              </linearGradient>
              <filter id="Path_6" x="236.195" y="570.76" width="295.95" height="189.321" filterUnits="userSpaceOnUse">
                <feOffset dy="3" input="SourceAlpha"/>
                <feGaussianBlur stdDeviation="3" result="blur-2"/>
                <feFlood flood-opacity="0.161"/>
                <feComposite operator="in" in2="blur-2"/>
                <feComposite in="SourceGraphic"/>
              </filter>
            </defs>
            <g id="phone" transform="translate(-10179.305 7588.909)">
              <g id="phone-2" data-name="phone" transform="translate(9332 -7865)">
                <circle id="phone-bg" cx="375" cy="375" r="375" transform="translate(847.304 276.091)" fill="url(#linear-gradient)"/>
                <g id="phone-act" transform="translate(81 -1)">
                  <g id="Group_812" data-name="Group 812">
                    <g id="iPhone" transform="translate(153.314 327)">
                      <path id="Union_1" data-name="Union 1" d="M3.623,632.516V278.1a1.991,1.991,0,0,1-.846.187H2a2,2,0,0,1-2-2V224.57a2,2,0,0,1,2-2h.777a1.992,1.992,0,0,1,.846.187V209.716a1.992,1.992,0,0,1-.846.187H2a2,2,0,0,1-2-2V155.146a2,2,0,0,1,2-2h.777a1.992,1.992,0,0,1,.846.187V130.382a1.992,1.992,0,0,1-.846.187H2a2,2,0,0,1-2-2V102.55a2,2,0,0,1,2-2h.777a1.992,1.992,0,0,1,.846.187V54a54,54,0,0,1,54-54h280.8a54,54,0,0,1,54,54V171.318h.463a2,2,0,0,1,2,2v92.064a2,2,0,0,1-2,2h-.463V632.516Z" transform="translate(790.686 155)" fill="#3b3b3b"/>
                      <path id="Subtraction_1" data-name="Subtraction 1" d="M355.267,596.707H0V33A32.972,32.972,0,0,1,33,0H91V3.926a15.017,15.017,0,0,0,15,15H246.824a15.017,15.017,0,0,0,15-15V0h60.443a32.972,32.972,0,0,1,33,33V596.706Z" transform="translate(810.97 169.358)" fill="#262626"/>
                    </g>
                    <g id="Group_793" data-name="Group 793" transform="translate(304 -75)">
                      <g id="Group_795" data-name="Group 795" transform="translate(662 557)">
                        <g id="Group_792" data-name="Group 792" transform="translate(0 15)">
                          <g id="Group_791" data-name="Group 791">
                            <path id="BG" d="M31,0H325a31,31,0,0,1,31,31V618a0,0,0,0,1,0,0H0a0,0,0,0,1,0,0V31A31,31,0,0,1,31,0Z" transform="translate(-2 -1)" fill="url(#linear-gradient-2)"/>
                            <g id="Number" transform="translate(32.2 276)" opacity="0.5">
                              <text id="Day" transform="translate(3 255)" fill="#9895aa" font-size="10" font-family="Poppins-Regular, Poppins"><tspan x="0" y="11">3.5k</tspan></text>
                              <text id="Week" transform="translate(0 213)" fill="#9895aa" font-size="10" font-family="Poppins-Regular, Poppins"><tspan x="0" y="11">5.5k</tspan></text>
                              <text id="Month" transform="translate(3 170)" fill="#9895aa" font-size="10" font-family="Poppins-Regular, Poppins"><tspan x="0" y="11">7.5k</tspan></text>
                              <text id="Year" transform="translate(0 128)" fill="#9895aa" font-size="10" font-family="Poppins-Regular, Poppins"><tspan x="0" y="11">9.5k</tspan></text>
                              <text id="Year-2" data-name="Year" transform="translate(0 85)" fill="#9895aa" font-size="10" font-family="Poppins-Regular, Poppins"><tspan x="0" y="11">11.5k</tspan></text>
                              <text id="Year-3" data-name="Year" transform="translate(0 43)" fill="#9895aa" font-size="10" font-family="Poppins-Regular, Poppins"><tspan x="0" y="11">13.5k</tspan></text>
                              <text id="Year-4" data-name="Year" fill="#9895aa" font-size="10" font-family="Poppins-Regular, Poppins"><tspan x="0" y="11">15.5k</tspan></text>
                            </g>
                            <g id="Line" transform="translate(45.5 283.5)">
                              <line id="Line_7" data-name="Line 7" x2="281.856" opacity="0.4" stroke="#43405a" stroke-linecap="round" stroke-width="1" stroke-dasharray="6 10" fill="none"/>
                              <line id="Line_89" data-name="Line 89" x2="281.856" transform="translate(0 43)" opacity="0.4" stroke="#43405a" stroke-linecap="round" stroke-width="1" stroke-dasharray="6 10" fill="none"/>
                              <line id="Line_90" data-name="Line 90" x2="281.856" transform="translate(0 86)" opacity="0.4" stroke="#43405a" stroke-linecap="round" stroke-width="1" stroke-dasharray="6 10" fill="none"/>
                              <line id="Line_91" data-name="Line 91" x2="281.856" transform="translate(0 129)" opacity="0.4" stroke="#43405a" stroke-linecap="round" stroke-width="1" stroke-dasharray="6 10" fill="none"/>
                              <line id="Line_92" data-name="Line 92" x2="281.856" transform="translate(0 172)" opacity="0.4" stroke="#43405a" stroke-linecap="round" stroke-width="1" stroke-dasharray="6 10" fill="none"/>
                              <line id="Line_93" data-name="Line 93" x2="281.856" transform="translate(0 215)" opacity="0.4" stroke="#43405a" stroke-linecap="round" stroke-width="1" stroke-dasharray="6 10" fill="none"/>
                              <line id="Line_94" data-name="Line 94" x2="281.856" transform="translate(0 258)" opacity="0.4" stroke="#43405a" stroke-linecap="round" stroke-width="1" stroke-dasharray="6 10" fill="none"/>
                            </g>
                            <path id="ic_sort_24px" d="M3,18H9V16H3ZM3,6V8H21V6Zm0,7H15V11H3Z" transform="translate(22.2 22)" fill="#fff"/>
                            <g id="BTC_Wallet" data-name="BTC Wallet" transform="translate(27 50)">
                              <rect id="Rectangle_7" data-name="Rectangle 7" width="300" height="153" rx="5" transform="translate(0)" fill="#172229" opacity="0.4"/>
                              <text id="Balance" transform="translate(19 72)" fill="#fff" font-size="15" font-family="Montserrat-Regular, Montserrat" opacity="0.5"><tspan x="0" y="0">Balance</tspan></text>
                              <text id="USD" transform="translate(249 75)" fill="#fff" font-size="12" font-family="Montserrat-Regular, Montserrat" opacity="0.5"><tspan x="0" y="0">USD</tspan></text>
                              <text id="EUR" transform="translate(250 115)" fill="#fff" font-size="12" font-family="Montserrat-Regular, Montserrat" opacity="0.5"><tspan x="0" y="0">EUR</tspan></text>
                              <text id="_42.3312" data-name="42.3312" transform="translate(19 103)" fill="#fff" font-size="29" font-family="Montserrat-Bold, Montserrat" font-weight="700" opacity="0.9"><tspan x="0" y="0">42.3312</tspan></text>
                              <text id="BTC" transform="translate(245 95)" fill="#fff" font-size="15" font-family="Montserrat-Bold, Montserrat" font-weight="700" opacity="0.9"><tspan x="0" y="0">BTC</tspan></text>
                              <text id="_123_451.22" data-name="123,451.22" transform="translate(19 122)" fill="#fff" font-size="11" font-family="Montserrat-ExtraLight, Montserrat" font-weight="200" opacity="0.5"><tspan x="0" y="0">123,451.22</tspan></text>
                              <path id="Path_1-2" data-name="Path 1" d="M917.686,593.073h299.656" transform="translate(-917.485 -553)" fill="none" stroke="#262f34" stroke-width="1"/>
                              <path id="Path_2" data-name="Path 2" d="M917.686,593.073h299.656" transform="translate(-917.485 -552)" fill="none" stroke="#151c20" stroke-width="1"/>
                              <text id="BTC_Wallet-2" data-name="BTC Wallet" transform="translate(116 23)" fill="#fff" font-size="12" font-family="Montserrat-Bold, Montserrat" font-weight="700"><tspan x="0" y="0">BTC Wallet</tspan></text>
                            </g>
                            <text id="Year-5" data-name="Year" transform="translate(68.852 561)" fill="#9895aa" font-size="10" font-family="Poppins-Regular, Poppins" opacity="0.503"><tspan x="0" y="11">Dec </tspan></text>
                            <text id="Year-6" data-name="Year" transform="translate(103.646 561)" fill="#9895aa" font-size="10" font-family="Poppins-Regular, Poppins" opacity="0.503"><tspan x="0" y="11">Dec 2</tspan></text>
                            <text id="Year-7" data-name="Year" transform="translate(141.262 561)" fill="#9895aa" font-size="10" font-family="Poppins-Regular, Poppins" opacity="0.503"><tspan x="0" y="11">Dec 3</tspan></text>
                            <text id="Year-8" data-name="Year" transform="translate(180.758 561)" fill="#9895aa" font-size="10" font-family="Poppins-Regular, Poppins" opacity="0.503"><tspan x="0" y="11">Dec 4</tspan></text>
                            <text id="Year-9" data-name="Year" transform="translate(220.255 561)" fill="#9895aa" font-size="10" font-family="Poppins-Regular, Poppins" opacity="0.503"><tspan x="0" y="11">Dec 5</tspan></text>
                            <text id="Year-10" data-name="Year" transform="translate(261.632 561)" fill="#9895aa" font-size="10" font-family="Poppins-Regular, Poppins" opacity="0.503"><tspan x="0" y="11">Dec 6</tspan></text>
                            <text id="Year-11" data-name="Year" transform="translate(302.069 561)" fill="#9895aa" font-size="10" font-family="Poppins-Regular, Poppins" opacity="0.503"><tspan x="0" y="11">Dec 7</tspan></text>
                            <g transform="matrix(1, 0, 0, 1, -199.7, -219.91)" filter="url(#PATH_1)">
                              <path id="PATH_1-3" data-name="PATH 1" d="M162.988,372.67l6.88-3.383,6.842-9.973,6.794-3.959,6.048,3.959,7.074,6.782,7.469,5,3.306,11.337,5.81,36.5,11.65-59.616,12.254,11.78L248.7,379.2l11.652-21.736,13.01-5.09,10.7-10.1,3.029,15.188,2.483,99.085,13.664-85.458,2.514-13.627,7.949,34.762,9.034-14.827,10.188-22.047,8.944,61.155,8.2-37.307,8.263,30.267,10.251-17.241L372.9,377.4l7.327-15.437,8.511,17.239,3.39,10.565,10.025,41.28V382.431l5.23,9.8,5.526,3.148,9.608,2.579,5.99,11.514,3.868,15.911,6.98,10.927" transform="translate(82.81 234.65)" fill="none" stroke="#ff4991" stroke-linecap="round" stroke-width="2"/>
                            </g>
                            <g id="buttons" transform="translate(25.312 229)">
                              <g id="day-2" data-name="day">
                                <rect id="day-3" data-name="day" width="52" height="19" rx="9.5" transform="translate(-12.313 -1)" fill="url(#linear-gradient-3)"/>
                                <text id="Day-4" data-name="Day" transform="translate(-0.313)" fill="#dfdbf8" font-size="12" font-family="Poppins-SemiBold, Poppins" font-weight="600"><tspan x="0" y="13">DAY</tspan></text>
                              </g>
                              <g id="week-2" data-name="week">
                                <rect id="week-3" data-name="week" width="52" height="0" rx="9.5" transform="translate(73.688 -1)" fill="url(#linear-gradient-3)"/>
                                <text id="Week-4" data-name="Week" transform="translate(82.688)" fill="#dfdbf8" font-size="12" font-family="Poppins-Regular, Poppins"><tspan x="0" y="13">WEEK</tspan></text>
                              </g>
                              <g id="month-2" data-name="month">
                                <rect id="month-3" data-name="month" width="60" height="0" rx="9.5" transform="translate(164.688 -1)" fill="url(#linear-gradient-3)"/>
                                <text id="Month-4" data-name="Month" transform="translate(171.688)" fill="#dfdbf8" font-size="12" font-family="Poppins-Regular, Poppins"><tspan x="0" y="13">MONTH</tspan></text>
                              </g>
                              <g id="year-12" data-name="year">
                                <rect id="year-13" data-name="year" width="52" height="0" rx="9.5" transform="translate(262.688 -1)" fill="url(#linear-gradient-3)"/>
                                <text id="Year-14" data-name="Year" transform="translate(272.687)" fill="#dfdbf8" font-size="12" font-family="Poppins-Regular, Poppins"><tspan x="0" y="13">YEAR</tspan></text>
                              </g>
                            </g>
                            <g transform="matrix(1, 0, 0, 1, -199.7, -219.91)" filter="url(#Path_6)">
                              <path id="Path_6-2" data-name="Path 6" d="M6046.5,392.357l5.68-6.292s4.744-1.5,5.188-3.6a32.548,32.548,0,0,1,2.1-5.522l6.2-4.42,9.972,6.252,11.511,9.008,9.543,46.8,12-57.643,22.9,19.077,12.158-19.077,14.713-7.086,8.75-11.009,6.3,114.859,15.354-96.764,9.44,32.719,8.834-17.307,9.16-22.5,9.285,64.728,8.4-38.566,7.461,31.068,10.9-17.426,4.629-17.307,6.467-13.58L6273.923,398l12.229,48.895V400.256l6.824,9.408,13.069,4.514,6.43,11.086,3.667,18.034,8.308,10.881v75.993H6046.5V392.357" transform="translate(-5801.3 217.91)" fill="url(#linear-gradient-7)"/>
                            </g>
                            <g id="cursor_group" transform="translate(164 334)">
                              <g id="cursor" transform="translate(11 17)" fill="none" stroke="#0aebaa" stroke-width="4">
                                <circle cx="7" cy="7" r="7" stroke="none"/>
                                <circle cx="7" cy="7" r="5" fill="none"/>
                              </g>
                              <text id="_" data-name="&gt;" transform="translate(25 8) rotate(90)" fill="#f6cbdd" font-size="10" font-family="OpenSans-Semibold, Open Sans" font-weight="600"><tspan x="-2.854" y="0">&gt;</tspan></text>
                              <text id="_1354" data-name="1354" transform="translate(11 11)" fill="#fbfbfb" font-size="10" font-family="OpenSans-Semibold, Open Sans" font-weight="600"><tspan x="-11.416" y="0">1354</tspan></text>
                            </g>
                          </g>
                        </g>
                        <g id="Group_794" data-name="Group 794" transform="translate(91.492)">
                          <rect id="Rectangle_1487" data-name="Rectangle 1487" width="171" height="41" rx="12" transform="translate(-0.492 2)" fill="#3b3b3b"/>
                          <rect id="Rectangle_1488" data-name="Rectangle 1488" width="45.319" height="5.771" rx="2.885" transform="translate(89.834 23.62)" fill="#262626"/>
                          <circle id="Ellipse_16" data-name="Ellipse 16" cx="7" cy="7" r="7" transform="translate(35.551 19.573)" fill="#262626"/>
                          <circle id="Ellipse_17" data-name="Ellipse 17" cx="7" cy="7" r="7" transform="translate(67.551 19.573)" fill="#262626"/>
                        </g>
                      </g>
                    </g>
                  </g>
                </g>
              </g>
            </g>
          </svg>