<svg xmlns="http://www.w3.org/2000/svg" width="16" height="16" viewBox="0 0 20 16">
  <path id="twitter" d="M537,6287.22a11.85,11.85,0,0,0,6.265,1.78,11.633,11.633,0,0,0,11.712-11.528V6277a9.041,9.041,0,0,0,2.024-2.076,9.072,9.072,0,0,1-2.325.593h0a4.219,4.219,0,0,0,1.787-2.246,13.163,13.163,0,0,1-1.981.827c-.194.063-.409.127-.6.19a4.127,4.127,0,0,0-7.126,2.755,4.225,4.225,0,0,0,.108.911,12.39,12.39,0,0,1-8.439-4.2s-1.959,2.649,1.184,5.361a4.307,4.307,0,0,1-1.787-.529,3.861,3.861,0,0,0,3.251,4.026,3.8,3.8,0,0,1-1.808.063,4.047,4.047,0,0,0,3.768,2.84,7.981,7.981,0,0,1-6.028,1.7Z" transform="translate(-537 -6273)" fill="#0045e1" fill-rule="evenodd"/>
</svg>
