<svg xmlns="http://www.w3.org/2000/svg" width="20" height="20" viewBox="0 0 20 20">
  <path id="Path_2994" data-name="Path 2994" d="M9720.79,8970h-7.56a6.218,6.218,0,0,0-6.23,6.209v7.559a6.223,6.223,0,0,0,6.23,6.232h7.56a6.228,6.228,0,0,0,6.21-6.232v-7.559a6.223,6.223,0,0,0-6.21-6.209Zm2.272,4.7a.768.768,0,0,0-.765-.742.754.754,0,1,0,0,1.507A.773.773,0,0,0,9723.063,8974.7Zm-6.053.337a4.994,4.994,0,1,0,3.488,1.463A4.944,4.944,0,0,0,9717.01,8975.039Zm0,8.188a3.24,3.24,0,1,1,2.273-5.512,3.146,3.146,0,0,1,.968,2.272,3.264,3.264,0,0,1-3.241,3.239Zm8.28.54a4.533,4.533,0,0,1-4.5,4.523h-7.56a4.535,4.535,0,0,1-4.521-4.523v-7.559a4.535,4.535,0,0,1,4.521-4.5h7.56a4.533,4.533,0,0,1,4.5,4.5Z" transform="translate(-9707 -8970)" fill="#fff" fill-rule="evenodd"/>
</svg>
